<svg xmlns="http://www.w3.org/2000/svg" xmlns:xlink="http://www.w3.org/1999/xlink" version="1.1" x="0px" y="0px" viewBox="0 0 97.6 125" enable-background="new 0 0 97.6 100" xml:space="preserve"><path d="M94.001,58.432l-3.209-1.687c0.349-2.197,0.533-4.45,0.533-6.745c0-2.981-0.308-5.89-0.89-8.697l3.124-1.832  c4.895-2.87,4.261-5.035-1.408-4.809l-3.618,0.145c-1.868-4.893-4.611-9.352-8.039-13.187l1.795-3.158  c2.803-4.933,1.172-6.489-3.625-3.458l-3.068,1.939c-3.982-3.242-8.562-5.776-13.548-7.417l-0.025-3.62  c-0.037-5.674-2.229-6.207-4.867-1.184l-1.687,3.209c-2.197-0.35-4.45-0.534-6.745-0.534c-2.982,0-5.891,0.308-8.698,0.89  l-1.833-3.124c-2.87-4.895-5.033-4.261-4.808,1.409l0.145,3.618c-4.893,1.868-9.352,4.611-13.187,8.04l-3.158-1.795  c-4.933-2.804-6.489-1.173-3.458,3.624l1.939,3.069c-3.242,3.984-5.777,8.563-7.417,13.549l-3.621,0.024  c-5.673,0.037-6.206,2.229-1.183,4.867l3.209,1.687c-0.35,2.197-0.534,4.45-0.534,6.746c0,2.98,0.308,5.89,0.89,8.696l-3.124,1.832  c-4.895,2.87-4.262,5.035,1.408,4.809l3.618-0.145c1.868,4.893,4.611,9.352,8.039,13.187l-1.794,3.158  c-2.804,4.933-1.174,6.49,3.624,3.458l3.07-1.938c3.982,3.241,8.562,5.776,13.547,7.417l0.024,3.62  c0.038,5.674,2.229,6.207,4.868,1.184l1.687-3.209c2.197,0.349,4.45,0.533,6.747,0.533c2.98,0,5.889-0.308,8.698-0.89l1.83,3.124  c2.87,4.895,5.033,4.261,4.809-1.408l-0.145-3.618c4.893-1.868,9.352-4.611,13.187-8.039l3.158,1.795  c4.931,2.803,6.488,1.172,3.458-3.625l-1.938-3.068c3.241-3.982,5.776-8.562,7.417-13.549l3.62-0.023  C98.491,63.262,99.023,61.069,94.001,58.432z"/><text x="0" y="115" fill="#000000" font-size="5px" font-weight="bold" font-family="'Helvetica Neue', Helvetica, Arial-Unicode, Arial, Sans-serif">Created by Noël Rasendrason</text><text x="0" y="120" fill="#000000" font-size="5px" font-weight="bold" font-family="'Helvetica Neue', Helvetica, Arial-Unicode, Arial, Sans-serif">from the Noun Project</text></svg>